<?xml version="1.0" encoding="UTF-8" standalone="no"?>
<!DOCTYPE svg PUBLIC "-//W3C//DTD SVG 1.1//EN" "http://www.w3.org/Graphics/SVG/1.1/DTD/svg11.dtd">
<svg version="1.1" xmlns="http://www.w3.org/2000/svg" xmlns:xlink="http://www.w3.org/1999/xlink" preserveAspectRatio="xMidYMid meet" viewBox="0 0 640 640" width="640" height="640"><defs><path d="M368.38 213.38C367.02 212.24 363.51 210.31 363.51 210.31C359.66 208.39 355.48 207.41 351.11 207.41C346.54 207.41 310.03 207.41 305.46 207.41C300.21 207.41 295.96 211.67 295.96 216.91C295.96 222.16 300.22 226.42 305.46 226.42C310.03 226.42 346.54 226.42 351.11 226.42C354.62 226.42 357.11 228.37 358.46 230.23C359.57 231.75 360.14 234.12 360.14 235.47C360.14 240.72 364.4 244.98 369.65 244.98C374.9 244.98 379.16 240.72 379.16 235.47C379.16 231.39 378.3 227.45 376.63 223.81C376.3 223.06 372.82 217.1 368.38 213.38Z" id="a2xbxdNDe"></path><path d="M368.38 213.38C367.02 212.24 363.51 210.31 363.51 210.31C359.66 208.39 355.48 207.41 351.11 207.41C346.54 207.41 310.03 207.41 305.46 207.41C300.21 207.41 295.96 211.67 295.96 216.91C295.96 222.16 300.22 226.42 305.46 226.42C310.03 226.42 346.54 226.42 351.11 226.42C354.62 226.42 357.11 228.37 358.46 230.23C359.57 231.75 360.14 234.12 360.14 235.47C360.14 240.72 364.4 244.98 369.65 244.98C374.9 244.98 379.16 240.72 379.16 235.47C379.16 231.39 378.3 227.45 376.63 223.81C376.3 223.06 372.82 217.1 368.38 213.38Z" id="a7D54FJQ6S"></path><path d="M174.28 71.64L174.66 71.68L175.04 71.73L175.41 71.8L175.78 71.88L176.14 71.98L176.5 72.09L176.85 72.22L177.2 72.35L177.54 72.5L177.87 72.67L178.19 72.84L178.5 73.03L178.81 73.23L179.11 73.44L179.4 73.66L179.68 73.89L179.96 74.14L180.22 74.39L180.47 74.65L180.72 74.93L180.95 75.21L181.17 75.5L181.38 75.8L181.58 76.1L181.77 76.42L181.94 76.74L182.11 77.07L182.26 77.41L182.4 77.76L182.52 78.11L182.63 78.47L182.73 78.83L182.81 79.2L182.88 79.57L182.94 79.95L182.97 80.34L183 80.72L183.01 81.12L182.99 82.23L182.96 83.35L182.9 84.45L182.81 85.55L182.7 86.65L182.57 87.73L182.42 88.81L182.24 89.88L182.04 90.95L181.81 92L181.57 93.05L181.3 94.09L181.01 95.12L180.7 96.14L180.37 97.15L180.02 98.16L179.65 99.15L179.25 100.13L178.84 101.11L178.41 102.07L177.95 103.02L177.48 103.96L176.99 104.89L176.48 105.81L175.95 106.71L175.41 107.6L174.84 108.49L174.26 109.35L173.66 110.21L173.04 111.05L172.41 111.88L171.76 112.7L171.09 113.5L170.41 114.29L169.71 115.06L169 115.82L168.27 116.56L167.52 117.29L166.76 118L165.98 118.7L166.02 118.73L166.06 118.76L166.1 118.79L166.14 118.82L166.18 118.85L166.21 118.88L166.25 118.91L166.29 118.94L166.33 118.98L166.37 119.01L166.4 119.04L166.44 119.07L166.48 119.1L166.52 119.13L166.55 119.16L166.59 119.2L166.63 119.23L166.67 119.26L166.7 119.29L166.74 119.32L166.78 119.36L166.82 119.39L166.85 119.42L166.89 119.45L166.93 119.49L166.96 119.52L167 119.55L167.04 119.58L167.07 119.62L167.11 119.65L167.15 119.68L167.19 119.71L167.22 119.75L167.26 119.78L167.3 119.81L167.33 119.85L167.37 119.88L167.4 119.91L167.44 119.95L167.48 119.98L168.11 119.51L168.76 119.05L169.41 118.6L170.07 118.16L170.73 117.73L171.4 117.31L172.08 116.91L172.76 116.51L173.45 116.13L174.14 115.75L174.84 115.39L175.55 115.04L176.26 114.7L176.97 114.38L177.7 114.06L178.42 113.76L179.16 113.47L179.89 113.18L180.63 112.92L181.38 112.66L182.13 112.41L182.89 112.18L183.65 111.96L184.41 111.75L185.18 111.56L185.95 111.37L186.72 111.2L187.5 111.04L188.29 110.89L189.07 110.76L189.86 110.64L190.65 110.53L191.45 110.43L192.25 110.34L193.05 110.27L193.85 110.21L194.66 110.17L195.47 110.14L196.28 110.12L197.09 110.11L198.4 110.13L199.71 110.18L201.01 110.27L202.31 110.39L203.6 110.54L204.88 110.73L206.15 110.96L207.42 111.21L208.67 111.5L209.92 111.82L211.16 112.17L212.38 112.56L213.59 112.97L214.79 113.42L215.98 113.9L217.16 114.4L218.32 114.94L219.46 115.51L220.59 116.1L221.71 116.73L222.81 117.38L223.89 118.06L224.95 118.77L226 119.5L227.03 120.27L228.04 121.06L229.02 121.87L229.99 122.72L230.94 123.59L231.86 124.48L232.76 125.4L233.64 126.34L234.5 127.31L235.33 128.3L236.14 129.32L236.92 130.36L237.67 131.42L238.4 132.5L239.1 133.61L239.78 134.74L239.9 134.96L240.02 135.19L240.13 135.41L240.24 135.64L240.34 135.87L240.43 136.11L240.52 136.34L240.6 136.58L240.67 136.82L240.74 137.06L240.8 137.3L240.85 137.54L240.9 137.78L240.94 138.03L240.98 138.27L241.01 138.52L241.03 138.76L241.05 139.01L241.06 139.26L241.06 139.5L241.06 139.75L241.05 140L241.03 140.24L241.01 140.49L240.98 140.73L240.95 140.98L240.91 141.22L240.86 141.47L240.8 141.71L240.74 141.95L240.68 142.19L240.6 142.43L240.52 142.66L240.44 142.9L240.34 143.13L240.24 143.36L240.14 143.59L240.03 143.82L239.91 144.04L239.79 144.27L239.44 144.85L239.09 145.43L238.73 146.01L238.36 146.58L237.99 147.14L237.61 147.7L237.22 148.25L236.82 148.79L236.42 149.33L236.01 149.87L235.59 150.39L235.17 150.91L234.74 151.42L234.3 151.93L233.86 152.43L233.41 152.93L232.96 153.41L232.49 153.9L232.03 154.37L231.55 154.84L231.07 155.3L230.59 155.75L230.1 156.2L229.6 156.64L229.1 157.07L228.59 157.5L228.08 157.92L227.56 158.33L227.03 158.74L226.5 159.14L225.97 159.53L225.43 159.91L224.89 160.29L224.34 160.66L223.78 161.02L223.23 161.37L222.66 161.72L222.1 162.06L221.52 162.39L220.95 162.71L395.02 162.71L398.14 162.78L401.22 162.97L404.27 163.28L407.28 163.71L410.25 164.25L413.19 164.92L416.07 165.69L418.92 166.58L421.71 167.57L424.45 168.67L427.14 169.87L429.77 171.18L432.34 172.57L434.86 174.07L437.3 175.66L439.69 177.34L442 179.1L444.25 180.96L446.42 182.89L448.51 184.91L450.53 187L452.46 189.17L454.31 191.42L456.08 193.73L457.76 196.12L459.35 198.56L460.84 201.08L462.24 203.65L463.54 206.28L464.75 208.97L465.85 211.71L466.84 214.51L467.72 217.35L468.5 220.24L469.16 223.17L469.71 226.14L470.14 229.16L470.45 232.21L470.64 235.29L470.7 238.41L470.7 246.15L484.56 291.95L484.62 292.17L484.68 292.39L484.73 292.6L484.78 292.82L484.82 293.04L484.86 293.26L484.89 293.48L484.91 293.7L484.94 293.92L484.95 294.14L484.96 294.36L484.97 294.58L484.97 294.8L484.96 295.02L484.95 295.24L484.94 295.46L484.92 295.68L484.89 295.9L484.86 296.12L484.83 296.33L484.79 296.55L484.74 296.77L484.69 296.98L484.64 297.19L484.58 297.4L484.51 297.61L484.44 297.82L484.37 298.03L484.29 298.24L484.2 298.44L484.11 298.64L484.02 298.84L483.92 299.04L483.82 299.24L483.71 299.43L483.6 299.62L483.48 299.81L483.35 300L483.23 300.19L483.09 300.37L482.96 300.55L482.82 300.72L482.67 300.89L482.53 301.06L482.37 301.23L482.22 301.39L482.06 301.54L481.9 301.7L481.73 301.84L481.57 301.99L481.4 302.13L481.22 302.26L481.04 302.39L480.86 302.52L480.68 302.65L480.5 302.76L480.31 302.88L480.12 302.99L479.93 303.09L479.73 303.19L479.53 303.29L479.33 303.38L479.13 303.47L478.93 303.55L478.72 303.63L478.51 303.7L478.31 303.77L478.09 303.84L477.88 303.9L477.67 303.95L477.45 304L477.23 304.04L477.02 304.08L476.8 304.12L476.58 304.14L476.35 304.17L476.13 304.19L475.91 304.2L475.68 304.21L475.46 304.21L446.93 304.21L446.71 304.21L446.48 304.2L446.26 304.19L446.03 304.17L445.81 304.14L445.59 304.12L445.37 304.08L445.15 304.04L444.94 304L444.72 303.95L444.51 303.9L444.29 303.84L444.08 303.77L443.87 303.7L443.67 303.63L443.46 303.55L443.26 303.47L443.05 303.38L442.86 303.29L442.66 303.19L442.46 303.09L442.27 302.99L442.08 302.88L441.89 302.76L441.71 302.65L441.53 302.52L441.35 302.39L441.17 302.26L441 302.13L440.82 301.99L440.66 301.84L440.49 301.7L440.33 301.54L440.17 301.39L440.02 301.23L439.87 301.06L439.72 300.89L439.57 300.72L439.43 300.55L439.3 300.37L439.16 300.19L439.04 300L438.91 299.81L438.8 299.62L438.68 299.43L438.57 299.24L438.47 299.04L438.37 298.84L438.28 298.64L438.19 298.44L438.1 298.24L438.02 298.03L437.95 297.82L437.88 297.61L437.81 297.4L437.75 297.19L437.7 296.98L437.65 296.77L437.6 296.55L437.56 296.33L437.53 296.12L437.5 295.9L437.47 295.68L437.45 295.46L437.44 295.24L437.43 295.02L437.42 294.8L437.42 294.58L437.43 294.36L437.44 294.14L437.46 293.92L437.48 293.7L437.5 293.48L437.53 293.26L437.57 293.04L437.61 292.82L437.66 292.6L437.71 292.39L437.77 292.17L437.83 291.95L451.69 246.15L451.69 238.41L451.65 236.21L451.52 234.03L451.31 231.88L451.03 229.75L450.66 227.64L450.22 225.56L449.7 223.51L449.11 221.49L448.45 219.51L447.71 217.55L446.91 215.63L446.04 213.75L445.1 211.91L444.1 210.1L443.04 208.33L441.91 206.61L440.72 204.93L439.48 203.3L438.17 201.72L436.82 200.18L435.41 198.69L433.94 197.26L432.43 195.87L430.86 194.55L429.25 193.27L427.59 192.06L425.89 190.91L424.15 189.81L422.36 188.78L420.53 187.81L418.67 186.91L416.76 186.08L414.83 185.31L412.85 184.62L410.85 183.99L408.81 183.44L406.75 182.96L404.66 182.56L402.54 182.24L400.4 182L400.67 182.25L400.95 182.51L401.22 182.77L401.49 183.03L401.76 183.29L402.03 183.55L402.3 183.82L402.57 184.08L402.83 184.35L403.1 184.62L403.36 184.89L403.62 185.16L403.88 185.43L404.14 185.71L404.4 185.98L404.65 186.26L404.91 186.54L405.16 186.82L405.41 187.1L405.66 187.38L405.91 187.66L406.16 187.94L406.41 188.23L406.65 188.52L406.9 188.81L407.14 189.1L407.38 189.39L407.62 189.68L407.85 189.97L408.09 190.27L408.33 190.56L408.56 190.86L408.79 191.16L409.02 191.46L409.25 191.76L409.48 192.06L409.7 192.37L409.93 192.67L410.15 192.98L410.37 193.28L410.47 193.43L410.59 193.6L410.71 193.79L410.85 194L410.99 194.22L411.15 194.47L411.31 194.73L411.49 195.01L411.67 195.3L411.85 195.61L412.05 195.92L412.24 196.25L412.45 196.59L412.65 196.94L412.86 197.29L413.08 197.65L413.29 198.01L413.51 198.38L413.72 198.76L413.94 199.13L414.16 199.5L414.37 199.88L414.59 200.25L414.8 200.62L415 200.98L415.21 201.34L415.41 201.69L415.6 202.04L415.79 202.38L415.97 202.7L416.14 203.02L416.31 203.32L416.46 203.61L416.61 203.89L416.75 204.15L416.88 204.39L416.99 204.62L417.1 204.83L417.19 205.01L417.26 205.18L417.59 205.9L417.9 206.62L418.21 207.34L418.51 208.06L418.8 208.79L419.09 209.52L419.36 210.25L419.63 210.98L419.89 211.72L420.14 212.45L420.38 213.19L420.62 213.93L420.84 214.68L421.06 215.42L421.27 216.17L421.47 216.92L421.67 217.67L421.85 218.43L422.03 219.18L422.2 219.94L422.36 220.7L422.51 221.46L422.66 222.23L422.79 222.99L422.92 223.76L423.04 224.53L423.15 225.3L423.26 226.07L423.35 226.85L423.44 227.62L423.52 228.4L423.59 229.18L423.65 229.96L423.7 230.74L423.75 231.53L423.79 232.31L423.82 233.1L423.84 233.89L423.85 234.68L423.85 235.47L423.85 353.05L423.85 353.09L423.85 353.12L423.85 353.16L423.85 353.2L423.85 353.24L423.85 353.27L423.85 353.31L423.85 353.35L423.85 353.39L423.85 353.43L423.84 353.46L423.84 353.5L423.84 353.54L423.84 353.58L423.84 353.61L423.83 353.65L423.83 353.69L423.83 353.73L423.83 353.77L423.82 353.8L423.82 353.84L423.82 353.88L423.81 353.92L423.81 353.96L423.81 353.99L423.8 354.03L423.8 354.07L423.79 354.11L423.79 354.14L423.79 354.18L423.78 354.22L423.78 354.26L423.77 354.3L423.77 354.33L423.76 354.37L423.75 354.41L423.75 354.45L423.74 354.48L423.74 354.52L423.73 354.56L409.94 440.06L409.88 440.4L409.81 440.74L409.72 441.07L409.63 441.4L409.52 441.72L409.4 442.04L409.27 442.35L409.13 442.66L408.98 442.96L408.82 443.25L408.65 443.54L408.47 443.82L408.28 444.09L408.08 444.36L407.88 444.61L407.66 444.86L407.44 445.11L407.21 445.34L406.97 445.57L406.72 445.78L406.47 445.99L406.21 446.19L405.94 446.38L405.66 446.57L405.38 446.74L405.09 446.9L404.8 447.06L404.5 447.2L404.2 447.33L403.89 447.45L403.57 447.56L403.25 447.66L402.93 447.75L402.6 447.83L402.27 447.9L401.93 447.95L401.59 448L401.25 448.03L400.91 448.05L400.56 448.05L331.48 448.05L331.29 448.05L331.1 448.05L330.91 448.04L330.72 448.02L330.54 448.01L330.35 447.99L330.16 447.96L329.97 447.93L329.79 447.9L329.6 447.87L329.42 447.83L329.24 447.78L329.06 447.74L328.88 447.69L328.7 447.64L328.52 447.58L328.34 447.52L328.16 447.46L327.99 447.39L327.81 447.32L327.64 447.24L327.47 447.17L327.3 447.09L327.14 447L326.97 446.91L326.81 446.82L326.64 446.73L326.48 446.63L326.32 446.53L326.17 446.43L326.01 446.32L325.86 446.21L325.71 446.1L325.56 445.98L325.41 445.86L325.27 445.74L325.12 445.61L324.98 445.49L324.85 445.35L324.71 445.22L324.58 445.08L324.45 444.94L324.32 444.8L324.2 444.66L324.08 444.51L323.96 444.36L323.85 444.21L323.74 444.06L323.63 443.91L323.53 443.75L323.42 443.59L323.33 443.43L323.23 443.27L323.14 443.11L323.05 442.94L322.97 442.78L322.89 442.61L322.81 442.44L322.73 442.27L322.66 442.09L322.59 441.92L322.53 441.74L322.47 441.57L322.41 441.39L322.36 441.21L322.31 441.03L322.26 440.85L322.21 440.66L322.17 440.48L322.14 440.3L322.1 440.11L322.08 439.92L322.05 439.74L322.03 439.55L322.01 439.36L321.99 439.17L321.98 438.98L321.98 438.79L321.97 438.6L321.97 438.41L322.8 380.97L322.55 381L322.28 381.03L321.98 381.06L321.67 381.09L321.33 381.12L320.98 381.15L320.61 381.18L320.22 381.2L319.82 381.23L319.41 381.25L318.98 381.27L318.55 381.29L318.11 381.31L317.66 381.33L317.2 381.35L316.74 381.37L316.28 381.39L315.82 381.4L315.35 381.41L314.89 381.43L314.43 381.44L313.97 381.45L313.52 381.46L313.08 381.47L312.65 381.48L312.22 381.48L311.81 381.49L311.41 381.49L311.02 381.5L310.65 381.5L310.29 381.5L309.95 381.5L309.63 381.5L309.34 381.5L309.06 381.49L308.81 381.49L308.58 381.48L308.38 381.48L308.21 381.47L308.07 381.46L308.07 392.81L308.06 393.21L308.04 393.59L308 393.98L307.95 394.36L307.88 394.73L307.79 395.1L307.7 395.46L307.59 395.82L307.46 396.17L307.32 396.51L307.17 396.85L307.01 397.18L306.83 397.51L306.64 397.82L306.45 398.13L306.23 398.43L306.01 398.72L305.78 399L305.54 399.27L305.28 399.54L305.02 399.79L304.75 400.03L304.47 400.27L304.18 400.49L303.88 400.7L303.57 400.9L303.25 401.09L302.93 401.26L302.6 401.42L302.26 401.58L301.92 401.71L301.57 401.84L301.21 401.95L300.85 402.05L300.48 402.13L300.1 402.2L299.72 402.25L299.34 402.29L298.95 402.32L298.56 402.32L298.17 402.32L297.78 402.29L297.4 402.25L297.02 402.2L296.64 402.13L296.27 402.05L295.91 401.95L295.55 401.84L295.2 401.71L294.86 401.58L294.52 401.43L294.19 401.26L293.86 401.09L293.55 400.9L293.24 400.7L292.94 400.49L292.65 400.27L292.37 400.03L292.1 399.79L291.83 399.54L291.58 399.27L291.34 399L291.11 398.72L290.88 398.43L290.67 398.13L290.48 397.82L290.29 397.51L290.11 397.18L289.95 396.85L289.8 396.51L289.66 396.17L289.54 395.82L289.43 395.46L289.33 395.1L289.25 394.73L289.18 394.36L289.12 393.98L289.08 393.59L289.06 393.21L289.05 392.81L289.05 377.26L288.68 377.11L288.3 376.97L287.93 376.82L287.55 376.67L287.18 376.52L286.81 376.37L286.44 376.21L286.07 376.05L285.7 375.89L285.34 375.73L284.97 375.56L284.61 375.4L284.24 375.23L283.88 375.06L283.52 374.88L283.16 374.71L282.8 374.53L282.44 374.35L282.09 374.17L281.73 373.99L281.38 373.8L281.02 373.61L280.67 373.42L280.32 373.23L279.97 373.04L279.62 372.84L279.27 372.64L278.93 372.44L278.58 372.24L278.24 372.04L277.89 371.83L277.55 371.62L277.21 371.41L276.87 371.2L276.54 370.99L276.2 370.77L275.86 370.55L275.53 370.33L275.2 370.11L274.86 369.89L274.86 375.86L274.86 376.25L274.83 376.64L274.79 377.03L274.74 377.4L274.67 377.78L274.59 378.15L274.49 378.51L274.38 378.87L274.26 379.22L274.12 379.56L273.97 379.9L273.8 380.23L273.63 380.56L273.44 380.87L273.24 381.18L273.03 381.48L272.81 381.77L272.58 382.05L272.34 382.32L272.08 382.59L271.82 382.84L271.55 383.08L271.27 383.32L270.97 383.54L270.68 383.75L270.37 383.95L270.05 384.13L269.73 384.31L269.4 384.47L269.06 384.62L268.72 384.76L268.36 384.89L268.01 385L267.64 385.09L267.27 385.18L266.9 385.25L266.52 385.3L266.14 385.34L265.75 385.36L265.36 385.37L264.96 385.36L264.58 385.34L264.19 385.3L263.81 385.25L263.44 385.18L263.07 385.09L262.71 385L262.35 384.89L262 384.76L261.66 384.62L261.32 384.47L260.99 384.31L260.66 384.13L260.35 383.95L260.04 383.75L259.74 383.54L259.45 383.32L259.17 383.08L258.9 382.84L258.63 382.59L258.38 382.32L258.14 382.05L257.9 381.77L257.68 381.48L257.47 381.18L257.27 380.87L257.08 380.56L256.91 380.23L256.75 379.9L256.59 379.56L256.46 379.22L256.33 378.87L256.22 378.51L256.12 378.15L256.04 377.78L255.97 377.4L255.92 377.03L255.88 376.64L255.85 376.25L255.85 375.86L255.85 350.38L255.77 350.26L255.69 350.14L255.62 350.02L255.54 349.9L255.47 349.78L255.39 349.66L255.32 349.54L255.24 349.42L255.17 349.3L255.09 349.18L255.02 349.06L254.94 348.93L254.87 348.81L254.8 348.69L254.72 348.57L254.65 348.45L254.58 348.33L254.5 348.2L254.43 348.08L254.36 347.96L254.29 347.84L254.22 347.71L254.14 347.59L254.07 347.47L254 347.34L253.93 347.22L253.86 347.1L253.79 346.97L253.72 346.85L253.65 346.72L253.58 346.6L253.51 346.47L253.44 346.35L253.37 346.22L253.3 346.1L253.24 345.97L253.17 345.85L253.1 345.72L253.03 345.6L252.97 345.47L223.57 345.47L215.89 439.32L215.85 439.69L215.8 440.06L215.74 440.41L215.66 440.77L215.57 441.12L215.46 441.46L215.35 441.8L215.22 442.13L215.08 442.45L214.93 442.77L214.77 443.08L214.6 443.39L214.41 443.68L214.22 443.97L214.02 444.25L213.8 444.53L213.58 444.79L213.35 445.05L213.1 445.3L212.85 445.54L212.59 445.77L212.33 445.99L212.05 446.2L211.77 446.4L211.48 446.59L211.18 446.77L210.87 446.94L210.56 447.1L210.25 447.25L209.92 447.38L209.59 447.51L209.26 447.62L208.92 447.72L208.57 447.81L208.22 447.88L207.87 447.94L207.51 447.99L207.14 448.03L206.78 448.05L206.41 448.05L139.14 448.05L138.77 448.05L138.41 448.03L138.04 447.99L137.68 447.94L137.33 447.88L136.98 447.81L136.64 447.72L136.3 447.62L135.96 447.51L135.63 447.38L135.31 447.25L134.99 447.1L134.68 446.94L134.37 446.77L134.08 446.59L133.79 446.4L133.5 446.2L133.23 445.99L132.96 445.77L132.7 445.54L132.45 445.3L132.21 445.05L131.98 444.79L131.75 444.53L131.54 444.25L131.33 443.97L131.14 443.68L130.96 443.39L130.78 443.08L130.62 442.77L130.47 442.45L130.33 442.13L130.21 441.8L130.09 441.46L129.99 441.12L129.9 440.77L129.82 440.41L129.76 440.06L129.71 439.69L129.67 439.32L120.79 330.95L119.43 329.91L118.09 328.83L116.79 327.74L115.52 326.61L114.27 325.46L113.06 324.28L111.87 323.07L110.72 321.84L109.59 320.59L108.5 319.31L107.44 318.01L106.41 316.69L105.41 315.34L104.44 313.97L103.51 312.58L102.61 311.18L101.74 309.75L100.91 308.3L100.11 306.83L99.34 305.35L98.61 303.84L97.91 302.32L97.25 300.79L96.62 299.24L96.03 297.67L95.47 296.09L94.96 294.49L94.47 292.88L94.03 291.26L93.62 289.62L93.25 287.97L92.91 286.32L92.62 284.65L92.36 282.97L92.14 281.28L91.96 279.58L91.82 277.87L91.72 276.16L91.66 274.43L91.64 272.71L91.64 265.51L86.75 265.51L85.66 265.48L84.59 265.42L83.53 265.31L82.48 265.16L81.45 264.97L80.43 264.74L79.42 264.47L78.44 264.16L77.47 263.82L76.51 263.44L75.58 263.02L74.66 262.57L73.77 262.08L72.89 261.56L72.04 261.01L71.22 260.42L70.41 259.81L69.63 259.17L68.88 258.49L68.15 257.79L67.45 257.06L66.77 256.31L66.13 255.53L65.52 254.73L64.93 253.9L64.38 253.05L63.86 252.17L63.37 251.28L62.92 250.36L62.5 249.43L62.12 248.47L61.78 247.5L61.47 246.52L61.2 245.51L60.97 244.49L60.78 243.46L60.63 242.41L60.52 241.35L60.46 240.28L60.43 239.19L60.43 230.98L60.44 230.27L60.47 229.57L60.52 228.88L60.58 228.19L60.66 227.5L60.76 226.82L60.88 226.14L61.01 225.48L61.16 224.81L61.33 224.16L61.51 223.51L61.71 222.86L61.93 222.23L62.16 221.6L62.41 220.98L62.67 220.37L62.95 219.76L63.24 219.17L63.54 218.58L63.87 218L64.2 217.43L64.55 216.87L64.91 216.31L65.28 215.77L65.67 215.24L66.07 214.72L66.49 214.21L66.91 213.7L67.35 213.21L67.8 212.74L68.26 212.27L68.74 211.81L69.22 211.37L69.72 210.93L70.22 210.51L70.74 210.11L71.27 209.71L71.81 209.33L72.35 208.96L72.91 208.6L66.67 163.36L66.15 163.63L65.62 163.89L65.1 164.14L64.56 164.39L64.03 164.63L63.49 164.87L62.95 165.1L62.41 165.32L61.87 165.54L61.32 165.75L60.77 165.95L60.22 166.15L59.66 166.34L59.1 166.52L58.55 166.7L57.98 166.87L57.42 167.03L56.85 167.19L56.28 167.34L55.71 167.48L55.14 167.62L54.57 167.75L53.99 167.87L53.41 167.99L52.83 168.1L52.25 168.2L51.67 168.3L51.09 168.39L50.5 168.47L49.91 168.54L49.32 168.61L48.73 168.67L48.14 168.73L47.55 168.77L46.96 168.81L46.36 168.85L45.77 168.87L45.17 168.89L44.57 168.9L43.97 168.9L42.66 168.89L41.35 168.83L40.05 168.75L38.75 168.62L37.46 168.47L36.18 168.28L34.9 168.06L33.64 167.8L32.38 167.51L31.13 167.19L29.9 166.84L28.67 166.45L27.46 166.04L26.25 165.59L25.07 165.11L23.89 164.61L22.73 164.07L21.58 163.5L20.45 162.91L19.34 162.28L18.24 161.63L17.16 160.95L16.09 160.24L15.05 159.5L14.02 158.74L13.01 157.95L12.02 157.13L11.06 156.29L10.11 155.42L9.19 154.52L8.28 153.6L7.41 152.66L6.55 151.69L5.72 150.7L4.91 149.68L4.13 148.64L3.38 147.58L2.65 146.49L1.95 145.39L1.28 144.26L1.15 144.03L1.03 143.81L0.92 143.58L0.82 143.35L0.72 143.12L0.63 142.89L0.54 142.65L0.46 142.42L0.39 142.18L0.32 141.94L0.26 141.7L0.2 141.46L0.16 141.21L0.12 140.97L0.08 140.73L0.05 140.48L0.03 140.24L0.01 139.99L0 139.74L0 139.5L0 139.25L0.01 139L0.03 138.76L0.05 138.51L0.08 138.27L0.12 138.02L0.16 137.78L0.2 137.54L0.26 137.29L0.32 137.05L0.39 136.81L0.46 136.58L0.54 136.34L0.63 136.11L0.72 135.87L0.82 135.64L0.92 135.41L1.03 135.18L1.15 134.96L1.28 134.74L1.95 133.61L2.65 132.5L3.38 131.42L4.13 130.36L4.91 129.32L5.72 128.3L6.55 127.31L7.41 126.35L8.29 125.4L9.19 124.48L10.11 123.59L11.06 122.72L12.03 121.88L13.01 121.06L14.02 120.27L15.05 119.51L16.1 118.77L17.16 118.06L18.24 117.38L19.34 116.73L20.46 116.1L21.59 115.51L22.73 114.94L23.9 114.41L25.07 113.9L26.26 113.42L27.46 112.97L28.67 112.56L29.9 112.18L31.14 111.82L32.38 111.5L33.64 111.21L34.91 110.96L36.18 110.73L37.46 110.55L38.75 110.39L40.05 110.27L41.35 110.18L42.66 110.13L43.97 110.11L44.79 110.12L45.6 110.14L46.4 110.17L47.21 110.21L48.01 110.27L48.81 110.34L49.61 110.43L50.4 110.53L51.2 110.64L51.98 110.76L52.77 110.89L53.55 111.04L54.33 111.2L55.11 111.37L55.88 111.56L56.64 111.75L57.41 111.96L58.17 112.18L58.92 112.41L59.67 112.66L60.42 112.91L61.16 113.18L61.9 113.46L62.63 113.76L63.36 114.06L64.08 114.37L64.79 114.7L65.51 115.04L66.21 115.39L66.91 115.75L67.61 116.12L68.29 116.51L68.98 116.9L69.65 117.31L70.32 117.72L70.99 118.15L71.64 118.59L72.29 119.04L72.94 119.5L73.58 119.97L73.61 119.94L73.65 119.9L73.68 119.87L73.72 119.84L73.76 119.8L73.79 119.77L73.83 119.74L73.87 119.71L73.9 119.67L73.94 119.64L73.98 119.61L74.01 119.58L74.05 119.54L74.09 119.51L74.13 119.48L74.16 119.45L74.2 119.42L74.24 119.38L74.27 119.35L74.31 119.32L74.35 119.29L74.39 119.26L74.42 119.22L74.46 119.19L74.5 119.16L74.54 119.13L74.57 119.1L74.61 119.07L74.65 119.04L74.69 119.01L74.72 118.97L74.76 118.94L74.8 118.91L74.84 118.88L74.88 118.85L74.91 118.82L74.95 118.79L74.99 118.76L75.03 118.73L75.07 118.7L74.29 118L73.53 117.29L72.79 116.56L72.06 115.82L71.34 115.06L70.64 114.29L69.96 113.5L69.29 112.7L68.64 111.89L68.01 111.06L67.39 110.22L66.79 109.36L66.21 108.49L65.64 107.61L65.1 106.72L64.57 105.81L64.06 104.9L63.57 103.97L63.1 103.03L62.65 102.07L62.21 101.11L61.8 100.14L61.41 99.16L61.03 98.16L60.68 97.16L60.35 96.15L60.04 95.13L59.75 94.1L59.48 93.06L59.24 92.01L59.02 90.95L58.82 89.89L58.64 88.82L58.48 87.74L58.35 86.65L58.24 85.56L58.16 84.46L58.1 83.35L58.06 82.24L58.05 81.12L58.05 80.72L58.08 80.34L58.12 79.95L58.17 79.57L58.24 79.2L58.32 78.83L58.42 78.47L58.53 78.11L58.66 77.76L58.79 77.41L58.95 77.07L59.11 76.74L59.28 76.42L59.47 76.1L59.67 75.8L59.88 75.5L60.1 75.21L60.34 74.93L60.58 74.65L60.83 74.39L61.1 74.14L61.37 73.89L61.65 73.66L61.94 73.44L62.24 73.23L62.55 73.03L62.86 72.84L63.19 72.67L63.52 72.5L63.86 72.35L64.2 72.22L64.55 72.09L64.91 71.98L65.27 71.88L65.64 71.8L66.01 71.73L66.39 71.68L66.78 71.64L67.16 71.62L67.56 71.61L67.95 71.62L68.34 71.64L68.72 71.68L69.1 71.73L69.47 71.8L69.84 71.88L70.21 71.98L70.56 72.09L70.92 72.22L71.26 72.35L71.6 72.5L71.93 72.67L72.25 72.84L72.57 73.03L72.88 73.23L73.17 73.44L73.47 73.66L73.75 73.89L74.02 74.14L74.28 74.39L74.54 74.65L74.78 74.93L75.01 75.21L75.23 75.5L75.44 75.8L75.64 76.1L75.83 76.42L76 76.74L76.17 77.07L76.32 77.41L76.46 77.76L76.58 78.11L76.69 78.47L76.79 78.83L76.87 79.2L76.94 79.57L76.99 79.95L77.03 80.34L77.06 80.72L77.06 81.12L77.09 82.39L77.17 83.66L77.3 84.91L77.47 86.15L77.7 87.37L77.97 88.57L78.29 89.76L78.65 90.92L79.06 92.07L79.51 93.2L80 94.3L80.54 95.38L81.11 96.44L81.73 97.47L82.38 98.47L83.07 99.45L83.79 100.4L84.55 101.32L85.35 102.21L86.18 103.07L87.04 103.9L87.93 104.69L88.85 105.45L89.8 106.18L90.78 106.87L91.78 107.52L92.81 108.13L93.87 108.71L94.95 109.24L96.05 109.74L97.18 110.19L98.32 110.6L99.49 110.96L100.68 111.28L101.88 111.55L103.1 111.78L104.34 111.95L105.59 112.08L106.85 112.16L108.13 112.18L132.92 112.18L134.2 112.16L135.47 112.08L136.72 111.95L137.95 111.78L139.17 111.55L140.38 111.28L141.56 110.96L142.73 110.6L143.88 110.19L145 109.74L146.1 109.24L147.18 108.71L148.24 108.13L149.27 107.52L150.28 106.87L151.26 106.18L152.21 105.45L153.13 104.69L154.02 103.9L154.88 103.07L155.7 102.21L156.5 101.32L157.26 100.4L157.98 99.45L158.67 98.47L159.33 97.47L159.94 96.44L160.51 95.38L161.05 94.3L161.54 93.2L161.99 92.07L162.4 90.92L162.76 89.76L163.08 88.57L163.36 87.37L163.58 86.15L163.76 84.91L163.88 83.66L163.96 82.39L163.99 81.12L164 80.72L164.02 80.34L164.06 79.95L164.11 79.57L164.18 79.2L164.26 78.83L164.36 78.47L164.47 78.11L164.6 77.76L164.74 77.41L164.89 77.07L165.05 76.74L165.23 76.42L165.41 76.1L165.61 75.8L165.82 75.5L166.05 75.21L166.28 74.93L166.52 74.65L166.77 74.39L167.04 74.14L167.31 73.89L167.59 73.66L167.88 73.44L168.18 73.23L168.49 73.03L168.8 72.84L169.13 72.67L169.46 72.5L169.8 72.35L170.14 72.22L170.49 72.09L170.85 71.98L171.21 71.88L171.58 71.8L171.96 71.73L172.33 71.68L172.72 71.64L173.11 71.62L173.5 71.61L173.89 71.62L174.28 71.64ZM356.24 366.37L355.77 366.75L355.29 367.13L354.81 367.5L354.33 367.87L353.85 368.23L353.36 368.59L352.87 368.94L352.37 369.29L351.87 369.64L351.37 369.98L350.87 370.32L350.36 370.65L349.86 370.97L349.34 371.3L348.83 371.62L348.31 371.93L347.79 372.24L347.27 372.54L346.74 372.84L346.22 373.14L345.69 373.43L345.15 373.71L344.62 373.99L344.08 374.27L343.54 374.54L343 374.81L342.45 375.07L341.9 375.33L341.13 429.04L356.25 429.04L357.17 365.6L356.71 365.99L356.24 366.37ZM162.96 429.04L156.07 344.98L155.68 344.94L155.29 344.89L154.9 344.84L154.51 344.79L154.12 344.73L153.72 344.68L153.33 344.62L152.94 344.56L152.55 344.49L152.17 344.43L151.78 344.36L151.39 344.29L151 344.22L150.61 344.15L150.23 344.07L149.84 343.99L149.46 343.91L149.07 343.83L148.69 343.75L148.3 343.66L147.92 343.57L147.54 343.48L147.15 343.39L146.77 343.3L146.39 343.2L146.01 343.1L145.63 343L145.25 342.9L144.87 342.8L144.49 342.69L144.12 342.58L143.74 342.47L143.36 342.36L142.99 342.24L142.61 342.13L142.24 342.01L141.86 341.89L141.49 341.77L141.12 341.64L140.75 341.51L147.91 429.04L162.96 429.04ZM168.7 208.96L169.25 209.33L169.78 209.71L170.31 210.11L170.83 210.51L171.33 210.93L171.83 211.37L172.31 211.81L172.79 212.27L173.25 212.74L173.7 213.22L174.14 213.71L174.56 214.21L174.98 214.72L175.38 215.24L175.77 215.77L176.14 216.31L176.5 216.87L176.85 217.43L177.19 218L177.51 218.58L177.81 219.17L178.1 219.76L178.38 220.37L178.64 220.98L178.89 221.6L179.12 222.23L179.34 222.87L179.54 223.51L179.72 224.16L179.89 224.81L180.04 225.48L180.17 226.15L180.29 226.82L180.39 227.5L180.47 228.19L180.53 228.88L180.58 229.57L180.61 230.27L180.62 230.98L180.62 239.2L180.6 240.28L180.53 241.35L180.42 242.41L180.27 243.46L180.08 244.49L179.85 245.51L179.58 246.52L179.27 247.5L178.93 248.48L178.55 249.43L178.13 250.36L177.68 251.28L177.19 252.17L176.67 253.05L176.12 253.9L175.54 254.73L174.92 255.53L174.28 256.31L173.61 257.06L172.91 257.79L172.18 258.49L171.42 259.17L170.64 259.81L169.84 260.42L169.01 261.01L168.16 261.56L167.29 262.08L166.39 262.57L165.48 263.02L164.54 263.44L163.59 263.82L162.62 264.16L161.63 264.47L160.63 264.74L159.61 264.97L158.58 265.16L157.53 265.31L156.47 265.42L155.4 265.49L154.32 265.51L110.66 265.51L110.66 272.71L110.68 274.07L110.73 275.43L110.81 276.79L110.93 278.13L111.08 279.47L111.27 280.8L111.48 282.13L111.73 283.44L112.01 284.75L112.33 286.04L112.67 287.33L113.05 288.6L113.45 289.86L113.89 291.11L114.36 292.35L114.86 293.58L115.38 294.79L115.94 295.99L116.53 297.17L117.14 298.34L117.78 299.49L118.46 300.63L119.16 301.75L119.89 302.85L120.64 303.94L121.42 305L122.24 306.05L123.07 307.08L123.94 308.09L124.82 309.08L125.74 310.05L126.68 311L127.65 311.93L128.64 312.83L129.66 313.71L130.7 314.57L131.76 315.4L132.85 316.21L133.96 317L135.1 317.76L135.75 318.18L136.42 318.59L137.08 318.99L137.75 319.38L138.43 319.76L139.11 320.13L139.8 320.49L140.49 320.84L141.18 321.18L141.88 321.51L142.58 321.83L143.29 322.14L144 322.44L144.72 322.72L145.44 323L146.16 323.27L146.89 323.52L147.62 323.77L148.35 324.01L149.09 324.23L149.83 324.44L150.57 324.65L151.32 324.84L152.07 325.02L152.82 325.19L153.58 325.35L154.34 325.5L155.1 325.64L155.86 325.77L156.63 325.88L157.39 325.99L158.16 326.08L158.94 326.17L159.71 326.24L160.48 326.3L161.26 326.35L162.04 326.39L162.82 326.42L163.6 326.44L164.39 326.44L164.47 326.44L164.51 326.44L164.54 326.44L164.57 326.44L164.61 326.44L164.64 326.44L164.66 326.44L164.68 326.44L164.7 326.45L164.72 326.45L164.74 326.45L164.75 326.45L164.77 326.45L164.78 326.45L164.8 326.45L164.82 326.45L164.88 326.45L165.25 326.46L165.62 326.48L165.98 326.51L166.34 326.56L166.69 326.62L167.04 326.7L167.39 326.79L167.73 326.89L168.07 327L168.39 327.12L168.72 327.26L169.04 327.4L169.35 327.56L169.65 327.73L169.95 327.91L170.24 328.1L170.52 328.3L170.8 328.51L171.07 328.74L171.33 328.97L171.58 329.2L171.82 329.45L172.05 329.71L172.27 329.98L172.49 330.25L172.69 330.53L172.89 330.82L173.07 331.12L173.24 331.42L173.4 331.73L173.55 332.05L173.69 332.38L173.82 332.71L173.94 333.05L174.04 333.39L174.13 333.74L174.21 334.09L174.27 334.45L174.32 334.81L174.36 335.18L182.05 429.04L197.65 429.04L205.33 335.18L205.37 334.81L205.42 334.45L205.49 334.09L205.56 333.74L205.66 333.39L205.76 333.05L205.87 332.71L206 332.38L206.14 332.05L206.29 331.73L206.45 331.42L206.63 331.12L206.81 330.82L207 330.53L207.21 330.25L207.42 329.98L207.64 329.71L207.88 329.45L208.12 329.2L208.37 328.97L208.63 328.74L208.9 328.51L209.17 328.3L209.45 328.1L209.75 327.91L210.04 327.73L210.35 327.56L210.66 327.4L210.98 327.26L211.3 327.12L211.63 327L211.96 326.89L212.31 326.79L212.65 326.7L213 326.62L213.36 326.56L213.71 326.51L214.08 326.48L214.44 326.46L214.81 326.45L331.7 326.45L331.91 326.45L332.12 326.46L332.33 326.47L332.54 326.49L332.75 326.51L332.95 326.53L333.16 326.56L333.37 326.6L333.57 326.64L333.77 326.68L333.97 326.73L334.17 326.78L334.37 326.83L334.57 326.9L334.77 326.96L334.96 327.03L335.16 327.1L335.35 327.18L335.54 327.26L335.72 327.35L335.91 327.43L336.09 327.53L336.28 327.63L336.46 327.73L336.63 327.83L336.81 327.94L336.98 328.05L337.15 328.17L337.32 328.29L337.49 328.42L337.65 328.55L337.81 328.68L337.97 328.81L338.12 328.95L338.28 329.1L338.43 329.24L338.57 329.39L338.72 329.55L338.86 329.7L338.99 329.87L339.41 330.36L339.83 330.85L340.26 331.33L340.7 331.8L341.14 332.27L341.58 332.74L342.03 333.2L342.49 333.65L342.95 334.1L343.42 334.54L343.89 334.98L344.37 335.41L344.85 335.83L345.34 336.25L345.83 336.66L346.33 337.06L346.83 337.46L347.34 337.85L347.85 338.24L348.37 338.62L348.89 338.99L349.41 339.36L349.94 339.72L350.48 340.07L351.02 340.42L351.56 340.76L352.1 341.09L352.65 341.42L353.21 341.74L353.77 342.05L354.33 342.36L354.89 342.66L355.46 342.95L356.04 343.23L356.61 343.51L357.19 343.78L357.77 344.04L358.36 344.3L358.95 344.54L359.54 344.78L359.77 344.87L359.99 344.96L360.22 345.05L360.44 345.13L360.67 345.22L360.89 345.3L361.12 345.38L361.35 345.46L361.57 345.54L361.8 345.62L362.02 345.7L362.25 345.78L362.48 345.85L362.7 345.93L362.93 346L363.16 346.07L363.39 346.14L363.61 346.21L363.84 346.28L364.07 346.35L364.29 346.42L364.52 346.48L364.75 346.54L364.98 346.61L365.2 346.67L365.43 346.73L365.66 346.79L365.89 346.85L366.11 346.91L366.34 346.96L366.57 347.02L366.8 347.07L367.02 347.12L367.25 347.17L367.48 347.22L367.71 347.27L367.93 347.32L368.16 347.37L368.39 347.41L368.61 347.46L368.95 347.53L369.28 347.61L369.61 347.71L369.93 347.81L370.25 347.93L370.56 348.06L370.86 348.19L371.16 348.34L371.45 348.5L371.74 348.66L372.01 348.84L372.29 349.02L372.55 349.22L372.81 349.42L373.06 349.63L373.3 349.85L373.53 350.07L373.76 350.31L373.98 350.55L374.19 350.8L374.39 351.05L374.58 351.32L374.76 351.59L374.94 351.86L375.1 352.14L375.26 352.43L375.4 352.72L375.54 353.02L375.66 353.32L375.78 353.63L375.88 353.94L375.98 354.26L376.06 354.58L376.13 354.91L376.19 355.24L376.24 355.57L376.28 355.9L376.3 356.24L376.32 356.58L376.32 356.93L375.28 429.04L392.45 429.04L404.83 352.29L404.83 235.47L404.83 234.87L404.81 234.25L404.78 233.61L404.74 232.94L404.69 232.26L404.62 231.56L404.54 230.84L404.45 230.1L404.35 229.35L404.24 228.58L404.11 227.8L403.97 227.01L403.82 226.21L403.66 225.39L403.48 224.57L403.3 223.74L403.1 222.9L402.88 222.06L402.66 221.21L402.42 220.36L402.17 219.51L401.9 218.66L401.62 217.8L401.33 216.95L401.03 216.1L400.71 215.25L400.38 214.4L400.04 213.57L399.68 212.73L399.31 211.91L398.93 211.09L398.54 210.29L398.13 209.49L397.7 208.71L397.27 207.94L396.82 207.18L396.35 206.44L395.87 205.71L395.38 205.01L394.88 204.32L394.18 203.41L393.48 202.53L392.77 201.67L392.07 200.85L391.36 200.05L390.66 199.28L389.95 198.54L389.25 197.83L388.55 197.14L387.86 196.47L387.18 195.84L386.5 195.22L385.83 194.64L385.17 194.08L384.52 193.54L383.88 193.03L383.26 192.54L382.65 192.08L382.05 191.64L381.47 191.22L380.91 190.83L380.37 190.46L379.84 190.11L379.34 189.78L378.86 189.48L378.4 189.19L377.96 188.93L377.55 188.69L377.17 188.47L376.81 188.27L376.48 188.09L376.18 187.93L375.91 187.79L375.68 187.67L375.47 187.57L375.3 187.49L375.16 187.42L375.06 187.37L375 187.34L374.98 187.33L374.68 187.19L374.37 187.04L374.03 186.88L373.68 186.72L373.3 186.56L372.9 186.39L372.48 186.21L372.04 186.04L371.59 185.85L371.11 185.67L370.62 185.49L370.11 185.3L369.59 185.12L369.04 184.93L368.49 184.74L367.91 184.56L367.33 184.37L366.73 184.19L366.11 184.01L365.48 183.83L364.84 183.66L364.19 183.49L363.53 183.33L362.86 183.17L362.18 183.01L361.49 182.87L360.78 182.72L360.07 182.59L359.36 182.46L358.63 182.35L357.9 182.24L357.16 182.14L356.42 182.05L355.67 181.97L354.92 181.9L354.16 181.84L353.4 181.79L352.64 181.76L351.87 181.74L351.11 181.73L350.78 181.73L349.81 181.73L348.25 181.73L346.11 181.73L343.44 181.73L340.27 181.72L336.63 181.72L332.55 181.72L328.08 181.71L323.23 181.71L318.05 181.7L312.56 181.69L306.81 181.69L300.82 181.68L294.64 181.67L288.28 181.66L281.79 181.66L275.19 181.65L268.53 181.64L261.83 181.63L255.13 181.62L248.46 181.6L241.86 181.59L235.36 181.58L228.99 181.57L222.78 181.55L216.77 181.54L210.99 181.53L205.48 181.51L200.27 181.5L195.39 181.48L190.87 181.46L186.75 181.45L183.07 181.43L179.85 181.41L177.13 181.39L174.94 181.37L173.32 181.35L172.29 181.33L171.9 181.31L168.14 208.6L168.7 208.96ZM276.87 346.64L277.95 347.78L279.05 348.88L280.19 349.95L281.36 350.97L282.57 351.96L283.8 352.91L285.06 353.82L286.35 354.69L287.66 355.51L289 356.3L290.37 357.04L291.76 357.74L293.18 358.4L294.61 359.01L296.07 359.57L297.55 360.09L299.04 360.57L300.56 360.99L302.09 361.37L303.64 361.7L305.2 361.98L306.78 362.22L308.37 362.4L309.97 362.53L311.59 362.61L313.21 362.63L313.83 362.63L314.45 362.62L315.06 362.6L315.68 362.57L316.29 362.54L316.9 362.5L317.51 362.45L318.12 362.39L318.73 362.33L319.33 362.26L319.94 362.18L320.54 362.09L321.14 362L321.74 361.9L322.34 361.79L322.93 361.68L323.53 361.55L324.12 361.42L324.71 361.29L325.29 361.14L325.88 360.99L326.46 360.83L327.05 360.66L327.63 360.49L328.2 360.31L328.78 360.12L329.35 359.92L329.73 359.79L330.1 359.65L330.48 359.52L330.85 359.37L331.22 359.23L331.59 359.08L331.96 358.93L332.33 358.78L332.7 358.62L333.06 358.46L333.43 358.3L333.79 358.13L334.15 357.96L334.51 357.79L334.87 357.62L335.22 357.44L335.58 357.26L335.93 357.07L336.29 356.89L336.64 356.7L336.99 356.51L337.33 356.31L337.68 356.12L338.03 355.92L338.37 355.71L338.71 355.51L339.05 355.3L338.59 354.98L338.12 354.66L337.66 354.34L337.21 354.01L336.75 353.67L336.3 353.34L335.85 353L335.4 352.65L334.96 352.31L334.52 351.96L334.08 351.6L333.64 351.25L333.21 350.88L332.78 350.52L332.35 350.15L331.93 349.78L331.5 349.4L331.08 349.03L330.67 348.64L330.25 348.26L329.84 347.87L329.44 347.48L329.03 347.08L328.63 346.68L328.24 346.28L327.84 345.88L327.45 345.47L275.83 345.47L276.87 346.64ZM465.71 287.41L461.2 272.48L456.68 287.41L465.71 287.41ZM86.44 223.69L86.13 223.71L85.83 223.74L85.53 223.79L85.24 223.84L84.95 223.91L84.67 223.99L84.39 224.08L84.11 224.18L83.84 224.29L83.58 224.41L83.32 224.54L83.07 224.68L82.82 224.83L82.58 224.99L82.35 225.16L82.12 225.34L81.9 225.53L81.69 225.72L81.49 225.93L81.29 226.14L81.11 226.36L80.93 226.58L80.76 226.82L80.6 227.05L80.45 227.3L80.31 227.55L80.18 227.81L80.05 228.08L79.94 228.35L79.84 228.62L79.75 228.9L79.67 229.19L79.61 229.47L79.55 229.77L79.51 230.07L79.48 230.37L79.46 230.67L79.45 230.98L79.45 239.2L79.46 239.4L79.47 239.61L79.49 239.81L79.53 240.01L79.57 240.21L79.62 240.42L79.69 240.62L79.76 240.81L79.84 241.01L79.93 241.21L80.03 241.41L80.14 241.6L80.26 241.79L80.39 241.99L80.53 242.18L80.68 242.37L80.84 242.56L81.01 242.75L81.18 242.94L81.37 243.12L81.57 243.31L81.77 243.49L81.99 243.68L82.21 243.86L82.45 244.04L82.69 244.23L82.95 244.41L83.21 244.58L83.48 244.76L83.77 244.94L84.06 245.12L84.36 245.29L84.67 245.47L84.99 245.64L85.33 245.81L85.67 245.98L86.02 246.15L86.38 246.32L86.75 246.49L154.32 246.49L154.62 246.48L154.93 246.46L155.23 246.43L155.53 246.39L155.82 246.33L156.11 246.27L156.39 246.19L156.67 246.1L156.95 246L157.21 245.89L157.48 245.77L157.74 245.63L157.99 245.49L158.23 245.34L158.47 245.18L158.71 245.01L158.93 244.83L159.15 244.65L159.36 244.45L159.56 244.25L159.76 244.04L159.95 243.82L160.12 243.59L160.29 243.36L160.45 243.12L160.6 242.87L160.75 242.62L160.88 242.36L161 242.1L161.11 241.83L161.21 241.55L161.3 241.27L161.38 240.99L161.44 240.7L161.5 240.41L161.54 240.11L161.58 239.81L161.59 239.5L161.6 239.2L161.6 230.98L161.59 230.67L161.58 230.37L161.54 230.07L161.5 229.77L161.44 229.47L161.38 229.19L161.3 228.9L161.21 228.62L161.11 228.35L161 228.08L160.88 227.81L160.75 227.55L160.6 227.3L160.45 227.05L160.29 226.82L160.12 226.58L159.95 226.36L159.76 226.14L159.56 225.93L159.36 225.72L159.15 225.53L158.93 225.34L158.71 225.16L158.47 224.99L158.23 224.83L157.99 224.68L157.74 224.54L157.48 224.41L157.21 224.29L156.95 224.18L156.67 224.08L156.39 223.99L156.11 223.91L155.82 223.84L155.53 223.79L155.23 223.74L154.93 223.71L154.62 223.69L154.32 223.69L86.75 223.69L86.44 223.69ZM93.36 131.2L93.13 131.21L92.9 131.22L92.67 131.24L92.44 131.26L92.21 131.29L91.99 131.32L91.76 131.35L91.54 131.39L91.32 131.44L91.1 131.49L90.88 131.54L90.66 131.6L90.45 131.66L90.24 131.73L90.02 131.8L89.81 131.88L89.61 131.96L89.4 132.05L89.2 132.14L89 132.23L88.8 132.33L88.6 132.44L88.4 132.54L88.21 132.66L88.02 132.77L87.83 132.89L87.64 133.02L87.46 133.15L87.28 133.28L87.1 133.42L86.92 133.56L86.75 133.7L86.57 133.85L86.41 134L86.24 134.16L86.08 134.32L85.92 134.49L85.76 134.66L85.6 134.83L85.45 135.01L85.31 135.19L85.16 135.37L85.03 135.55L84.89 135.74L84.76 135.93L84.64 136.12L84.52 136.31L84.4 136.5L84.29 136.7L84.19 136.9L84.08 137.1L83.99 137.3L83.89 137.5L83.8 137.71L83.72 137.91L83.64 138.12L83.57 138.33L83.49 138.54L83.43 138.76L83.37 138.97L83.31 139.19L83.26 139.4L83.21 139.62L83.17 139.84L83.13 140.06L83.1 140.28L83.07 140.5L83.05 140.73L83.03 140.95L83.01 141.18L83 141.4L83 141.63L83 141.86L83 142.08L83.01 142.31L83.03 142.54L83.05 142.77L83.07 143L83.1 143.23L84.89 156.15L85.02 155.99L85.15 155.84L85.28 155.69L85.42 155.54L85.56 155.4L85.71 155.25L85.85 155.12L86 154.98L86.16 154.85L86.31 154.72L86.47 154.59L86.63 154.47L86.8 154.35L86.96 154.24L87.13 154.13L87.31 154.02L87.48 153.91L87.66 153.81L87.84 153.72L88.02 153.62L88.2 153.54L88.39 153.45L88.58 153.37L88.77 153.29L88.96 153.22L89.16 153.15L89.35 153.09L89.55 153.03L89.75 152.98L89.96 152.93L90.16 152.88L90.37 152.84L90.57 152.8L90.78 152.77L90.99 152.74L91.21 152.72L91.42 152.7L91.63 152.69L91.85 152.68L92.07 152.68L92.45 152.69L92.82 152.71L93.19 152.75L93.55 152.8L93.91 152.87L94.27 152.95L94.62 153.04L94.96 153.15L95.3 153.27L95.63 153.4L95.96 153.55L96.28 153.7L96.59 153.87L96.89 154.05L97.19 154.24L97.48 154.45L97.76 154.66L98.03 154.88L98.29 155.12L98.54 155.36L98.79 155.62L99.02 155.88L99.25 156.15L99.46 156.43L99.66 156.72L99.85 157.01L100.04 157.32L100.2 157.63L100.36 157.95L100.51 158.27L100.64 158.61L100.76 158.94L100.87 159.29L100.96 159.64L101.04 159.99L101.11 160.35L101.16 160.72L101.2 161.09L101.22 161.46L101.23 161.84L101.22 162.22L101.2 162.59L101.16 162.96L101.11 163.32L101.04 163.68L100.96 164.04L100.87 164.39L100.76 164.73L100.64 165.07L100.51 165.4L100.36 165.73L100.2 166.05L100.04 166.36L99.85 166.66L99.66 166.96L99.46 167.25L99.25 167.53L99.02 167.8L98.79 168.06L98.54 168.31L98.29 168.56L98.03 168.79L97.76 169.02L97.48 169.23L97.19 169.43L96.89 169.62L96.59 169.81L96.28 169.97L95.96 170.13L95.63 170.28L95.3 170.41L94.96 170.53L94.62 170.64L94.27 170.73L93.91 170.81L93.55 170.88L93.19 170.93L92.82 170.97L92.45 170.99L92.07 171L91.92 170.99L91.77 170.99L91.62 170.99L91.47 170.98L91.32 170.97L91.17 170.95L91.03 170.94L90.88 170.92L90.73 170.9L90.59 170.88L90.45 170.85L90.3 170.82L90.16 170.8L90.02 170.76L89.88 170.73L89.74 170.69L89.6 170.66L89.46 170.62L89.32 170.57L89.19 170.53L89.05 170.48L88.92 170.44L88.79 170.39L88.65 170.33L88.52 170.28L88.39 170.22L88.26 170.16L88.13 170.1L88.01 170.04L87.88 169.98L87.76 169.91L87.63 169.84L87.51 169.77L87.39 169.7L87.27 169.63L87.15 169.55L87.03 169.48L86.92 169.4L86.8 169.32L86.69 169.24L86.69 169.25L91.57 204.67L149.48 204.67L154.36 169.26L154.36 169.25L154.25 169.33L154.13 169.41L154.02 169.49L153.9 169.56L153.78 169.64L153.66 169.71L153.54 169.78L153.42 169.85L153.29 169.92L153.17 169.98L153.04 170.04L152.92 170.11L152.79 170.17L152.66 170.22L152.53 170.28L152.4 170.33L152.26 170.39L152.13 170.44L152 170.49L151.86 170.53L151.73 170.58L151.59 170.62L151.45 170.66L151.31 170.7L151.17 170.73L151.03 170.76L150.89 170.8L150.75 170.82L150.61 170.85L150.46 170.88L150.32 170.9L150.17 170.92L150.03 170.94L149.88 170.95L149.74 170.97L149.59 170.98L149.44 170.99L149.29 170.99L149.14 170.99L148.99 171L148.61 170.99L148.24 170.97L147.87 170.93L147.5 170.88L147.14 170.81L146.79 170.73L146.44 170.64L146.09 170.53L145.76 170.41L145.42 170.28L145.1 170.13L144.78 169.97L144.47 169.81L144.16 169.62L143.87 169.43L143.58 169.23L143.3 169.02L143.03 168.79L142.76 168.56L142.51 168.31L142.27 168.06L142.03 167.8L141.81 167.53L141.59 167.25L141.39 166.96L141.2 166.66L141.02 166.36L140.85 166.05L140.69 165.73L140.54 165.4L140.41 165.07L140.29 164.73L140.18 164.39L140.09 164.04L140.01 163.68L139.94 163.32L139.89 162.96L139.85 162.59L139.83 162.22L139.82 161.84L139.83 161.46L139.85 161.09L139.89 160.72L139.94 160.35L140.01 159.99L140.09 159.64L140.18 159.29L140.29 158.94L140.41 158.61L140.54 158.27L140.69 157.95L140.85 157.63L141.02 157.32L141.2 157.01L141.39 156.72L141.59 156.43L141.81 156.15L142.03 155.88L142.27 155.62L142.51 155.36L142.76 155.12L143.03 154.88L143.3 154.66L143.58 154.45L143.87 154.24L144.16 154.05L144.47 153.87L144.78 153.7L145.1 153.55L145.42 153.4L145.76 153.27L146.09 153.15L146.44 153.04L146.79 152.95L147.14 152.87L147.5 152.8L147.87 152.75L148.24 152.71L148.61 152.69L148.99 152.68L149.21 152.68L149.42 152.69L149.64 152.7L149.85 152.72L150.07 152.74L150.28 152.77L150.48 152.8L150.69 152.84L150.9 152.88L151.1 152.93L151.3 152.98L151.5 153.03L151.7 153.09L151.9 153.15L152.09 153.22L152.29 153.29L152.48 153.37L152.67 153.45L152.85 153.54L153.04 153.62L153.22 153.72L153.4 153.81L153.58 153.91L153.75 154.02L153.92 154.13L154.09 154.24L154.26 154.35L154.42 154.47L154.58 154.59L154.74 154.72L154.9 154.85L155.05 154.98L155.2 155.12L155.35 155.25L155.5 155.4L155.64 155.54L155.78 155.69L155.91 155.84L156.04 155.99L156.17 156.15L157.95 143.23L157.98 143L158 142.77L158.02 142.54L158.04 142.31L158.05 142.08L158.05 141.85L158.05 141.63L158.05 141.4L158.04 141.18L158.02 140.95L158.01 140.73L157.98 140.5L157.95 140.28L157.92 140.06L157.88 139.84L157.84 139.62L157.79 139.4L157.74 139.19L157.68 138.97L157.62 138.76L157.56 138.54L157.49 138.33L157.41 138.12L157.33 137.91L157.25 137.71L157.16 137.5L157.06 137.3L156.97 137.1L156.86 136.9L156.76 136.7L156.65 136.5L156.53 136.31L156.41 136.12L156.29 135.93L156.16 135.74L156.02 135.55L155.89 135.37L155.74 135.19L155.6 135.01L155.45 134.83L155.29 134.66L155.14 134.49L154.97 134.32L154.81 134.16L154.65 134L154.48 133.85L154.3 133.7L154.13 133.56L153.95 133.42L153.77 133.28L153.59 133.15L153.41 133.02L153.22 132.89L153.03 132.77L152.84 132.66L152.65 132.54L152.45 132.44L152.25 132.33L152.06 132.23L151.85 132.14L151.65 132.05L151.44 131.96L151.24 131.88L151.03 131.8L150.81 131.73L150.6 131.66L150.39 131.6L150.17 131.54L149.95 131.49L149.73 131.44L149.51 131.39L149.29 131.35L149.06 131.32L148.84 131.29L148.61 131.26L148.38 131.24L148.15 131.22L147.92 131.21L147.69 131.2L147.46 131.2L93.59 131.2L93.36 131.2ZM194.81 129.21L193.68 129.32L192.57 129.46L191.46 129.65L190.36 129.88L189.28 130.14L188.2 130.45L187.14 130.79L186.1 131.18L185.07 131.6L184.06 132.06L183.07 132.55L182.09 133.09L181.13 133.66L180.2 134.26L179.29 134.9L178.39 135.58L177.53 136.29L176.68 137.03L176.72 137.29L176.76 137.55L176.8 137.81L176.83 138.07L176.87 138.33L176.9 138.6L176.92 138.86L176.95 139.12L176.97 139.39L176.99 139.65L177.01 139.92L177.03 140.18L177.04 140.45L177.05 140.71L177.06 140.98L177.06 141.24L177.07 141.51L177.07 141.77L177.07 142.04L177.06 142.31L177.9 143.02L178.76 143.7L179.64 144.35L180.54 144.96L181.47 145.54L182.41 146.08L183.37 146.59L184.35 147.07L185.34 147.51L186.35 147.92L187.38 148.28L188.42 148.62L189.47 148.91L190.53 149.17L191.6 149.38L192.68 149.56L193.78 149.7L194.87 149.81L195.98 149.87L197.09 149.89L198.4 149.86L199.71 149.77L201.01 149.63L202.29 149.43L203.57 149.18L204.82 148.87L206.06 148.52L207.28 148.11L208.48 147.65L209.66 147.14L210.82 146.58L211.95 145.97L213.05 145.32L214.13 144.62L215.17 143.87L216.19 143.08L217.17 142.25L218.12 141.38L219.03 140.46L219.9 139.5L219.03 138.55L218.11 137.63L217.17 136.76L216.18 135.93L215.17 135.14L214.12 134.39L213.05 133.69L211.94 133.04L210.81 132.43L209.66 131.88L208.48 131.37L207.28 130.91L206.06 130.5L204.82 130.14L203.56 129.83L202.29 129.58L201.01 129.38L199.71 129.24L198.4 129.16L197.09 129.13L195.95 129.15L194.81 129.21ZM41.35 129.24L40.05 129.38L38.77 129.58L37.49 129.83L36.24 130.14L35 130.5L33.78 130.91L32.58 131.37L31.4 131.87L30.24 132.43L29.11 133.04L28 133.69L26.93 134.39L25.88 135.14L24.87 135.92L23.88 136.76L22.94 137.63L22.02 138.55L21.15 139.5L22.02 140.46L22.94 141.38L23.88 142.25L24.87 143.08L25.88 143.87L26.93 144.62L28 145.32L29.11 145.97L30.24 146.58L31.4 147.14L32.58 147.65L33.78 148.11L35 148.52L36.24 148.87L37.49 149.18L38.77 149.43L40.05 149.63L41.35 149.77L42.66 149.86L43.97 149.89L45.08 149.87L46.19 149.8L47.29 149.7L48.38 149.56L49.46 149.38L50.53 149.17L51.59 148.91L52.64 148.61L53.68 148.28L54.7 147.91L55.71 147.51L56.71 147.07L57.69 146.59L58.65 146.08L59.59 145.53L60.51 144.95L61.42 144.34L62.3 143.69L63.15 143.01L63.99 142.3L63.99 142.03L63.98 141.77L63.98 141.5L63.99 141.24L63.99 140.97L64 140.71L64.01 140.44L64.02 140.18L64.04 139.92L64.06 139.65L64.08 139.39L64.1 139.13L64.13 138.86L64.15 138.6L64.18 138.34L64.22 138.08L64.25 137.81L64.29 137.55L64.33 137.29L64.37 137.03L63.53 136.28L62.66 135.58L61.77 134.9L60.85 134.26L59.92 133.66L58.96 133.09L57.99 132.55L56.99 132.06L55.98 131.6L54.96 131.18L53.91 130.79L52.85 130.45L51.78 130.14L50.7 129.88L49.6 129.65L48.49 129.46L47.38 129.32L46.25 129.21L45.12 129.15L43.97 129.13L42.66 129.16L41.35 129.24Z" id="d4GftRNmfh"></path><path d="M368.38 213.38C367.02 212.24 363.51 210.31 363.51 210.31C359.66 208.39 355.48 207.41 351.11 207.41C346.54 207.41 310.03 207.41 305.46 207.41C300.21 207.41 295.96 211.67 295.96 216.91C295.96 222.16 300.22 226.42 305.46 226.42C310.03 226.42 346.54 226.42 351.11 226.42C354.62 226.42 357.11 228.37 358.46 230.23C359.57 231.75 360.14 234.12 360.14 235.47C360.14 240.72 364.4 244.98 369.65 244.98C374.9 244.98 379.16 240.72 379.16 235.47C379.16 231.39 378.3 227.45 376.63 223.81C376.3 223.06 372.82 217.1 368.38 213.38Z" id="a1gand5E2l"></path></defs><g><g><g><use xlink:href="#a2xbxdNDe" opacity="1" fill="#808080" fill-opacity="1"></use><g><use xlink:href="#a2xbxdNDe" opacity="1" fill-opacity="0" stroke="#000000" stroke-width="1" stroke-opacity="0"></use></g></g><g><use xlink:href="#a7D54FJQ6S" opacity="1" fill="#808080" fill-opacity="1"></use><g><use xlink:href="#a7D54FJQ6S" opacity="1" fill-opacity="0" stroke="#000000" stroke-width="1" stroke-opacity="0"></use></g></g><g><use xlink:href="#d4GftRNmfh" opacity="1" fill="#808080" fill-opacity="1"></use><g><use xlink:href="#d4GftRNmfh" opacity="1" fill-opacity="0" stroke="#000000" stroke-width="1" stroke-opacity="0"></use></g></g><g><use xlink:href="#a1gand5E2l" opacity="1" fill="#808080" fill-opacity="1"></use><g>
	<use xlink:href="#a1gand5E2l" opacity="1" fill-opacity="0" stroke="#000000" stroke-width="1" stroke-opacity="0"/></g></g></g></g></svg>